<svg width="32" height="32" viewBox="0 0 32 32" fill="none" xmlns="http://www.w3.org/2000/svg">
<path opacity="0.4" d="M2.66699 17.2932V9.31984C2.66699 5.63984 5.65366 2.6665 9.33366 2.6665H22.667C26.347 2.6665 29.3337 5.63984 29.3337 9.31984V18.6265C29.3337 22.2932 26.347 25.2665 22.667 25.2665H20.667C20.2537 25.2665 19.8537 25.4665 19.6003 25.7998L17.6003 28.4532C16.7203 29.6265 15.2803 29.6265 14.4003 28.4532L12.4003 25.7998C12.187 25.5065 11.707 25.2665 11.3337 25.2665H9.33366C5.65366 25.2665 2.66699 22.2932 2.66699 18.6265V17.2932Z" fill="#292D32"/>
<path d="M16.0003 16.0002C15.2537 16.0002 14.667 15.4002 14.667 14.6668C14.667 13.9335 15.267 13.3335 16.0003 13.3335C16.7337 13.3335 17.3337 13.9335 17.3337 14.6668C17.3337 15.4002 16.747 16.0002 16.0003 16.0002Z" fill="#292D32"/>
<path d="M21.3333 16.0002C20.5867 16.0002 20 15.4002 20 14.6668C20 13.9335 20.6 13.3335 21.3333 13.3335C22.0667 13.3335 22.6667 13.9335 22.6667 14.6668C22.6667 15.4002 22.08 16.0002 21.3333 16.0002Z" fill="#292D32"/>
<path d="M10.6663 16.0002C9.91967 16.0002 9.33301 15.4002 9.33301 14.6668C9.33301 13.9335 9.93301 13.3335 10.6663 13.3335C11.3997 13.3335 11.9997 13.9335 11.9997 14.6668C11.9997 15.4002 11.413 16.0002 10.6663 16.0002Z" fill="#292D32"/>
</svg>
